<mxfile host="app.diagrams.net" modified="2024-01-23T16:32:43.047Z" agent="Mozilla/5.0 (X11; Linux x86_64; rv:109.0) Gecko/20100101 Firefox/114.0" version="22.1.22" etag="mZZn_g7zS3Ooe0akjWwH" type="github">
  <diagram name="PÃ¡gina-1" id="BND9KNI84jFs0A5hJNpN">
    <mxGraphModel>
      <root>
        <mxCell id="0" />
        <mxCell id="1" parent="0" />
      </root>
    </mxGraphModel>
  </diagram>
</mxfile>
